<?xml version="1.0" encoding="utf-8"?>
<!-- Generator: Adobe Illustrator 23.1.0, SVG Export Plug-In . SVG Version: 6.00 Build 0)  -->
<svg version="1.1" id="Camada_1" xmlns="http://www.w3.org/2000/svg" xmlns:xlink="http://www.w3.org/1999/xlink" x="0px" y="0px"
	 viewBox="0 0 1366 504" style="enable-background:new 0 0 1366 504;" xml:space="preserve">
<style type="text/css">
	.st0{fill:#FFFFFF;}
	.st1{fill:none;stroke:#FFFFFF;stroke-width:1.6667;}
</style>
<g>
	<polygon class="st0" points="1194.66,29.87 1274.77,29.87 1274.77,409.55 1342.7,409.55 1342.7,505.35 1194.66,505.35 	"/>
	<g>
		<circle class="st1" cx="1319.18" cy="55.13" r="30.48"/>
		<path class="st0" d="M1307.28,70.81V38.83h14.18c2.85,0,5.01,0.29,6.5,0.86c1.48,0.58,2.66,1.59,3.55,3.04
			c0.89,1.45,1.33,3.06,1.33,4.83c0,2.27-0.74,4.18-2.2,5.74c-1.47,1.56-3.74,2.55-6.8,2.97c1.12,0.54,1.97,1.07,2.55,1.59
			c1.23,1.13,2.41,2.55,3.5,4.25l5.53,8.7h-5.29l-4.22-6.65c-1.24-1.92-2.26-3.38-3.05-4.4c-0.8-1.02-1.51-1.73-2.14-2.14
			c-0.63-0.41-1.28-0.69-1.93-0.85c-0.48-0.1-1.27-0.15-2.35-0.15h-4.91v14.2H1307.28z M1311.52,52.94h9.09
			c1.93,0,3.44-0.2,4.53-0.6c1.09-0.4,1.92-1.04,2.49-1.92c0.57-0.88,0.85-1.84,0.85-2.86c0-1.51-0.55-2.75-1.65-3.73
			c-1.1-0.97-2.83-1.46-5.2-1.46h-10.12V52.94z"/>
	</g>
	<path class="st0" d="M17.29,503.6V29.87h107.98l38.32,198.55l43.54-198.55h104.5v426.71l67.92-426.71H485.8l66.18,426.71V31.61
		h141.07c0,0,48.77,8.71,73.15,76.63l-10.45-78.37h85.34l40.06,245.57l41.8-243.83h240.35v88.82h-71.41v97.53h67.92v99.27h-66.18
		v90.57h69.67v95.79H1008.3V47.29L928.18,503.6h-95.79l-50.51-303.05c0,0-8.71,83.6-55.73,121.92l60.96,181.13h-83.6l-59.22-158.49
		V503.6H475.35l-8.71-45.28H402.2l-13.93,45.28H228.03V329.44l-41.8,174.17h-43.54l-38.32-172.42v170.68L17.29,503.6z
		 M457.93,366.01l-24.38-144.56l-20.9,144.56H457.93z M642.55,256.29c57.47-3.48,52.25-74.89,52.25-74.89
		c-8.71-69.67-52.25-66.18-52.25-66.18V256.29z"/>
</g>
</svg>
